<svg xmlns="http://www.w3.org/2000/svg" width="1123.7699115118935" height="319.3893780513756" style=""><rect id="backgroundrect" width="100%" height="100%" x="0" y="0" fill="none" stroke="none"/>
 <title>film strip thin</title>

 <metadata id="metadata7">image/svg+xml</metadata>
 <g style="" class="currentLayer">
  <title>Layer 1</title>
  <g id="svg_50" class="selected">
   <g id="svg_35" transform="rotate(90.38919830322266 561.8831787109374,160.9549255371094) ">
    <path id="svg_36" d="m466.2343538277588,-398.75375511982725 c-86.737183,275.154732 -57.060852,472.829102 -25.239807,621.742493 c31.821655,148.913391 60.645569,240.821045 7.577271,421.328491 l8.831238,2.9686890000000004 l1.620056,-5.265198 l-0.05236800000000002,0 l2.455994,-8.513916 l0,-0.05603000000000002 l0.2613830000000001,-0.9522090000000002 l8.517731,2.688599 l-0.2612,1.00824 l0,0.05603000000000002 l-2.456146,8.569946 l0,0.05603000000000002 l-1.6198430000000004,5.265198 l12.228058,4.144958 c3.378632,-11.81958 6.415863,-23.32196 9.144958,-34.503906 l172.91687,44.026062 c-3.621216,15.630615 -7.69397,31.582153 -12.332581,47.834961 l8.570068,2.912659 l2.35144,-9.242126 l0,-0.05596900000000001 l1.515564,-6.329468 l8.622375,2.408569 l-1.5678710000000002,6.385437 l-2.455994,9.690247 l9.719788,3.248718 c69.687195,-237.035706 27.517333999999998,-413.419434 -2.612854,-554.415009 c-30.129578,-140.99559 -53.334961,-254.853943 18.812378,-483.726868 l-9.980896,-3.640839 l-0.05236800000000002,0.16803000000000007 l-8.413391,-3.080719 l0.05236800000000002,-0.11200000000000003 l-11.078369,-4.032928 c-0.919434,2.978241 -1.7765499999999999,5.90683 -2.665039,8.850006 l-168.841003,-60.269806 c0.9586490000000004,-3.191681 1.935944,-6.3633120000000005 2.9263310000000002,-9.578156 l-10.712494,-3.864929 l-1.25415,4.537048 l-8.517914,-2.744629 l1.306335,-4.873108 l-7.315918,-2.632599 zm3.501282,16.691803 l8.517914,2.632629 l-2.14267,7.897827 l0,0.05596900000000001 l-2.717316,10.362427 l-8.570068,-2.576599 l2.769714,-10.418427 l0,-0.056000000000000015 l2.142426,-7.897827 zm-7.263794,27.61438 l8.570099,2.464539 l-1.6198730000000001,6.329437 l0.05239900000000003,0 l-2.97879,12.042755 l-8.570038,-2.408539 l2.926361,-12.042755 l0,-0.05603000000000002 l1.6198430000000004,-6.329407 zm15.049896,18.428192 l169.938324,55.732758 c-13.716431,50.860945 -22.623779,96.353043 -27.800476,138.015633 l-173.491791,-32.879509 c6.111633,-50.055025 16.16861,-103.526169 31.353943,-160.868881 zm-21.843079,9.298126 l8.622253,2.296509 l-0.940613,4.032928 l-2.873993,12.378845 l0.05212400000000002,0 l-0.470215,2.016449 l-8.674774,-2.184479 l0.4704280000000001,-2.072479 l2.873993,-12.434845 l0,-0.05603000000000002 l0.9407960000000002,-3.9768980000000003 zm213.833893,11.818695 l8.465393,2.9686890000000004 l-0.94043,2.9686890000000004 l0,0.056000000000000015 l-3.240112,10.978515999999999 l-1.149475,4.032928 l-8.517944,-2.8006290000000007 l1.202026,-4.032928 l0,-0.05603000000000002 l3.2397460000000002,-11.034515 l0,-0.05603000000000002 l0.05230700000000002,0 l0.8884890000000002,-3.024689 zm-220.157013,16.019684 l8.674591,2.1845090000000003 l-0.20904500000000006,0.8961790000000004 l0,0.05603000000000002 l-2.560425,11.986755 l0,0.056000000000000015 l-1.149872,5.489269 l-8.674347000000001,-2.016464 l1.1494140000000002,-5.545284 l0,-0.05596900000000001 l2.560669,-12.098816 l0,-0.056000000000000015 l0.20901500000000006,-0.8962100000000002 zm212.161652,11.370605 l8.5177,2.688599 l-2.299255,8.401958 l0,0.05600400000000001 l-2.665039,9.802246 l-8.517639,-2.632599 l2.612549,-9.858261 l0.05236800000000002,-0.05603000000000002 l2.299316,-8.401917 zm-217.962036,16.635815 l8.674377,1.960453 l-1.724335,8.850037 l-1.829102,9.746214 l-8.726715,-1.848417 l1.8288570000000002,-9.80225 l0.05236800000000002,-0.05599600000000001 l1.724548,-8.85004 zm210.59375,10.922516 l8.570068,2.5205729999999997 l-0.522339,1.904446 l0.05212400000000002,0 l-2.560425,10.250338 l0,0.056000000000000015 l-1.463196,6.161438 l-8.622437,-2.408569 l1.4631349999999999,-6.161407 l2.56073,-10.306368 l0,-0.05599600000000001 l0.522339,-1.960453 zm-215.871704,17.139925 l8.726715,1.792419 l-0.731415,4.032898 l-1.933563,11.314606 l-0.5225519999999998,3.360779 l-8.726929,-1.62439 l0.5227050000000002,-3.360748 l0,-0.05603000000000002 l1.9334410000000002,-11.370605 l0,-0.056000000000000015 l0.7315980000000002,-4.032928 zm209.182861,10.642426 l8.622498,2.296539 l-1.097534,4.705078 l0,0.056000000000000015 l-2.142456,9.746246 l0,0.056000000000000015 l-0.7838750000000002,3.8648990000000003 l-8.674438,-2.072479 l0.783752,-3.920898 l0.05236800000000002,-0.056000000000000015 l2.142456,-9.858276 l0,-0.056000000000000015 l1.097229,-4.761108 zm-213.885986,17.644043 l8.726959,1.51236 l-1.411041,9.522186 l0,0.056000000000000015 l-1.358673,9.242126 l-8.779114,-1.456329 l1.358673,-9.298126 l0,-0.05603000000000002 l1.463196,-9.522186 zm207.876587,10.362396 l8.726746,1.960449 l-1.2017820000000001,6.105377 l0,0.05603000000000002 l-1.7767330000000001,9.410156 l-0.5225829999999997,3.024691 l-8.726746,-1.736389 l0.522339,-3.080721 l0,-0.056000000000000015 l1.776917,-9.466187 l0,-0.056000000000000015 l1.201843,-6.161407 zm-212.004944,17.980104 l8.831482,1.344299 l-0.418091,2.9686850000000002 l0,0.056034000000000014 l-1.358673,10.586411 l0,0.05601100000000002 l-0.5749210000000002,5.153187 l-8.831207,-1.232285 l0.6270140000000002,-5.153183 l0,-0.056015000000000016 l1.306335,-10.642429 l0,-0.05602600000000001 l0.4180600000000001,-3.024689 zm206.883789,10.250366 l8.72699,1.624359 l-1.045166,6.161404 l0.05212400000000002,0 l-1.411011,9.074081 l0,0.05601900000000002 l-0.522339,3.416763 l-8.779114,-1.4563329999999999 l0.522339,-3.472775 l0,-0.056015000000000016 l1.411011,-9.130096 l0,-0.056015000000000016 l1.045166,-6.161392 zm-210.33255,18.204147 l8.831268,1.12027 l-0.6791990000000004,6.217415 l0,0.056015000000000016 l-0.992981,10.194336 l0,0.056015000000000016 l-0.20904500000000006,2.2965240000000002 l-8.883636,-0.8962100000000002 l0.20904500000000006,-2.408554 l0.05233800000000003,0 l0.9927980000000002,-10.306343 l0,-0.05603000000000002 l0.679413,-6.273438 zm206.047516,10.138329 l8.779114,1.344299 l-0.6794430000000002,4.929138 l0.05236800000000002,0 l-1.097534,8.738007 l0,0.056000000000000015 l-0.5746460000000002,5.097168 l-8.831543,-1.17627 l0.5749510000000002,-5.097168 l0,-0.056000000000000015 l1.09729,-8.794022 l0,-0.056015000000000016 l0.6794430000000002,-4.985138 zm-208.8172,18.428223 l8.883606,0.8401950000000002 l-0.6792300000000002,8.233887 l0,0.056015000000000016 l-0.7317500000000002,9.802246 l0,0.056000000000000015 l-0.05221600000000002,0.72818 l-8.883545,-0.6161500000000002 l0.05227700000000002,-0.78418 l0,-0.056015000000000016 l0.731384,-9.914261 l0,-0.056015000000000016 l0.6794740000000002,-8.289902 zm17.714844,7.729767 l174.589294,21.396912 c-3.120483,44.853813 -1.8499150000000002,85.438225 2.037903,124.124443 l-175.791077,10.642471 c-3.857239,-48.024582 -4.832123,-99.825958 -0.8361210000000002,-156.163826 zm187.757935,2.352539 l8.831421,1.06424 l-0.261353,2.520584 l0,0.056015000000000016 l-0.731567,8.345917 l0,0.056000000000000015 l-0.6270750000000004,7.841797 l-8.831299,-0.78418 l0.627136,-7.8977970000000015 l0,-0.056015000000000016 l0.731384,-8.457947 l0,-0.056015000000000016 l0.261353,-2.632599 zm-207.510681,18.540253 l8.883423,0.5601200000000002 l-0.522369,9.130104 l0,0.056015000000000016 l-0.4180600000000001,9.466171 l0,0.2800600000000001 l-8.883759,-0.3920900000000001 l0,-0.2800600000000001 l0,-0.056015000000000016 l0.41803,-9.522186 l0,-0.056015000000000016 l0.522736,-9.186104 zm205.211426,10.194344 l8.883545,0.5601200000000002 l-0.4179690000000001,7.337692 l0,0.056015000000000016 l-0.3659060000000001,7.953812 l0,0.056015000000000016 l-0.104309,3.528809 l-8.88385,-0.3920900000000001 l0.10473600000000004,-3.5848240000000002 l0,-0.056000000000000015 l0.3656620000000001,-8.065857 l0,-0.056015000000000016 l0.418091,-7.337677 zm-206.517944,18.484238 l8.883636,0.2800600000000001 l-0.261139,8.906036 l0,0.056015000000000016 l-0.10479700000000003,10.026306 l-8.883392,-0.11203000000000003 l0.10434,-10.138321 l0,-0.056015000000000016 l0.261353,-8.962051 zm205.368286,10.194336 l8.883606,0.2800600000000001 l-0.10449200000000003,2.6886140000000003 l0.05212400000000002,0 l-0.10424800000000002,7.673767 l0,0.11201500000000003 l0,8.401932 l-8.88385,0.056015000000000016 l0,-8.513947 l0,-0.056015000000000016 l0.05230700000000002,-7.841797 l0,-0.056015000000000016 l0.10455300000000002,-2.744629 zm-205.838623,18.540253 l8.883759,0 l0.05212400000000002,16.467773 l0,0.11203000000000003 l0.05215500000000003,2.352524 l-8.883392,0.2240450000000001 l-0.05236800000000002,-2.464554 l0,-0.056015000000000016 l-0.05227700000000002,-16.635803 zm214.669861,10.026291 l0.3137820000000001,12.2668 l0,0.11203000000000003 l0.3133540000000002,6.609528 l-8.883423,0.4480900000000001 l-0.3137820000000001,-6.721527 l0,-0.05603000000000002 l0,-0.056000000000000015 l-0.313293,-12.32283 l8.883362,-0.2800600000000001 zm-205.472748,18.428223 l0.10467500000000003,5.433243 l0,0.11203000000000003 l0.5224,13.387054000000001 l-8.883453,0.3920900000000001 l-0.5227050000000002,-13.499084 l0,-0.056015000000000016 l-0.10434,-5.545273 l8.883423,-0.2240450000000001 zm206.517914,9.970291 l0.8884890000000002,12.882935 l0,0.11204500000000003 l0.4703980000000001,5.881348 l-8.831482,0.8401950000000002 l-0.5225829999999997,-5.937378 l0,-0.056000000000000015 l0,-0.05603000000000002 l-0.83606,-12.994965 l8.831238,-0.6721500000000002 zm-205.420441,18.428223 l0.5747070000000002,10.754456 l0,0.11203000000000003 l0.6270750000000004,8.065857 l-8.883423,0.7281340000000002 l-0.5748900000000002,-8.177841 l0,-0.05603000000000002 l-0.627106,-10.866486 l8.883636,-0.5601200000000002 zm207.615448,9.858261 l1.358398,12.714935 l-0.05212400000000002,0 l0.783936,6.105377 l-8.831421,1.2323 l-0.7316280000000004,-6.161407 l0,-0.05603000000000002 l0,-0.056000000000000015 l-1.358704,-12.77095 l8.831543,-1.008224 zm-205.734192,18.484253 l1.3064580000000001,14.731354 l0,0.05603000000000002 l0.418091,4.088928 l-8.831451,1.06424 l-0.418091,-4.144958 l0,-0.056000000000000015 l0,-0.056000000000000015 l-1.306519,-14.787384 l8.831512,-0.8962100000000002 zm208.973877,9.690216 l1.67218,11.706635 l0,0.05603000000000002 l1.045166,7.001617 l-8.726807,1.51236 l-1.097473,-7.001648 l0,-0.05596900000000001 l0,-0.05603000000000002 l-1.67218,-11.762665 l8.779114,-1.40033 zm-17.767273,13.891144 c5.391235,36.198242 12.632141,71.444946 20.327881,107.824707 c2.008057,9.49234 4.051331,19.075256 6.114136,28.790619 l-173.178406,43.017883 c-2.042633,-9.456787 -4.142059,-19.031097 -6.218414,-28.846649 c-8.484283,-40.106079 -16.739197,-83.117554 -22.679352,-129.781738 l175.634155,-21.004822 zm-188.489288,4.761108 l0.20904500000000006,2.072449 l0,0.05603000000000002 l1.8288570000000002,15.291504 l0,0.11206100000000004 l0.15686000000000005,1.232239 l-8.779114,1.344299 l-0.15686000000000005,-1.344299 l-0.052094000000000015,0 l0,-0.05596900000000001 l-1.829132,-15.459564 l0,-0.056000000000000015 l-0.20904500000000006,-2.128479 l8.831482,-1.06427 zm210.489471,9.410156 l1.7244869999999999,10.194336 l0,0.11200000000000003 l1.515381,8.345947 l-8.72699,1.848419 l-1.515259,-8.457916 l0,-0.05603000000000002 l-1.7767330000000001,-10.306396 l8.779114,-1.6803590000000004 zm-207.040558,18.764282 l0.5749510000000002,4.369019 l0,0.05603000000000002 l2.142365,14.339294 l-8.779053,1.456329 l-2.142426,-14.395325 l0,-0.05603000000000002 l-0.5749210000000002,-4.425018 l8.779083,-1.344299 zm212.057159,9.186127 l1.619812,8.401917 l0,0.056000000000000015 l2.038147,10.138367 l-8.674561,2.016418 l-2.037964,-10.194336 l-0.05236800000000002,0 l0,-0.05596900000000001 l-1.6198730000000001,-8.457947 l8.726807,-1.904449 zm-207.876648,18.932343 l0.888306,5.657318 l0,0.056000000000000015 l2.194977,12.994965 l-8.72699,1.6803890000000004 l-2.194702,-13.051025 l-0.05242900000000002,-0.05596900000000001 l-0.8882140000000002,-5.713318 l8.779053,-1.568359 zm213.467957,8.906006 l1.3588870000000002,6.385498 l2.664978,12.154755 l-8.674561,2.18454 l-2.612854,-12.154785 l0,-0.05603000000000002 l-0.05236800000000002,0 l-1.306335,-6.385437 l8.622253,-2.12854 zm-208.712463,19.100403 l1.097229,6.161438 l0,0.056000000000000015 l2.351471,12.434845 l-8.674347000000001,1.848389 l-2.351685,-12.434814 l0,-0.056000000000000015 l-0.05233800000000003,0 l-1.09729,-6.217468 l8.726959,-1.792389 zm214.774231,8.682007 l3.867188,17.139893 l0.3133540000000002,1.344299 l-8.674377,2.24054 l-0.2614140000000001,-1.344299 l-3.867004,-17.195953 l8.622253,-2.184479 zm-209.496429,19.212402 l1.201965,5.993347 l2.560516,12.602905 l-8.674591,2.072479 l-2.612823,-12.658936 l-1.149658,-5.993378 l8.674591,-2.016418 zm215.767242,8.569946 l3.396729,15.179504 l0.05242900000000002,0 l0.731384,3.360779 l-8.674438,2.184448 l-0.7317500000000002,-3.304749 l0,-0.056000000000000015 l-3.44873,-15.123444 l8.674377,-2.24054 zm-210.071381,19.324402 l3.867188,18.540283 l-4.337372,1.064209 l-4.337402,1.06427 l0,-0.05603000000000002 l-3.8668210000000007,-18.540222 l8.674408,-2.07251 zm216.290009,8.457947 l2.926392,13.443085 l0.05212400000000002,0.056000000000000015 l1.045166,5.0972290000000005 l-8.622314,2.128479 l-1.097229,-5.097198 l-2.97876,-13.443085 l8.674622,-2.1845090000000003 zm-210.437256,19.380493 l3.658112,17.083893 l0.3133850000000002,1.51236 l-8.674408,2.128479 l-0.313751,-1.51239 l0,-0.05596900000000001 l-3.657776,-17.027954 l8.674438,-2.128418 zm216.446899,8.569946 l2.4558720000000003,12.042725 l0,0.05603000000000002 l1.306519,6.553497 l-8.726929,1.960449 l-1.25415,-6.497467 l0,-0.056000000000000015 l-2.456177,-12.042755 l8.674866,-2.016479 zm-19.909912,7.8977970000000015 c9.229736,47.095856 17.393677,97.147919 21.059265,151.346649 l-175.26825,16.131714 c-3.075409,-44.549255 -10.80249,-87.019897 -20.171234,-131.910217 l174.380219,-35.568146 zm-190.631927,11.426605 l3.239899,15.235474 l0.6792600000000002,3.360779 l-8.674408,2.07254 l-0.679413,-3.360809 l-3.239929,-15.235535 l8.674591,-2.072449 zm216.08078,8.737976 l2.090271,11.146545 l0,0.05603000000000002 l1.306519,7.561829 l-8.726807,1.680298 l-1.3064580000000001,-7.449677 l0,-0.05603000000000002 l-2.037903,-11.090546 l8.674377,-1.8484500000000001 zm-210.280396,19.212402 l0.05233800000000003,0.22406000000000006 l0,0.056091000000000016 l0.05239900000000003,0 l2.50827,12.882874000000001 l0,0.05603000000000002 l1.045197,5.489258 l-8.674805000000001,1.9044189999999999 l-1.045135,-5.433228 l0,-0.05603000000000002 l-2.560516,-12.826904 l0,-0.05596900000000001 l-0.05212400000000002,-0.22412100000000001 l8.674377,-2.016479 zm215.244873,8.962097 l1.7243650000000001,10.922485 l0,0.05603000000000002 l1.1498410000000001,7.897766 l-8.779114,1.45636 l-1.14978,-7.897827 l0.05230700000000002,0 l-1.7767330000000001,-10.810486 l8.779114,-1.6243290000000004 zm-209.81012,19.100342 l1.9859010000000001,10.978515999999999 l0,0.05603000000000002 l1.3062740000000002,7.785767 l-8.779053,1.6804200000000002 l-1.3062740000000002,-7.785828 l0.052094000000000015,0 l-1.985779,-10.866455 l8.726837,-1.8484500000000001 zm213.990662,9.298157 l1.51532,11.426636 l0,0.05596900000000001 l0.8361210000000002,7.505737 l-8.831238,1.120239 l-0.8361210000000002,-7.393677 l0,-0.05603000000000002 l-1.463196,-11.370605 l8.779114,-1.288269 zm-209.183105,18.932312 l1.3588870000000002,8.738037 l0,0.05603000000000002 l1.410797,10.138306 l-8.779053,1.40033 l-1.4108580000000002,-10.026306 l0,-0.05603000000000002 l-1.3588870000000002,-8.682007 l8.779114,-1.568359 zm212.527466,9.578247 l1.254211,12.882935 l0,0.05603000000000002 l0,0.05596900000000001 l0.470215,6.049377 l-8.883423,0.78418 l-0.4703980000000001,-6.049377 l0.05236800000000002,0 l-1.254211,-12.826965 l8.831238,-0.9521480000000002 zm-208.503632,18.876282 l0.8361210000000002,6.497498 l0,0.05603000000000002 l1.306488,12.434814 l-8.831421,1.06427 l-1.306519,-12.322815 l0,-0.05603000000000002 l-0.83606,-6.441467 l8.83139,-1.2323 zm210.959808,9.746216 l0.888306,15.571594 l0,0.05603000000000002 l0,0.05603000000000002 l0.15686000000000005,3.472778 l-8.88385,0.3920900000000001 l-0.15661600000000006,-3.416809 l0,-0.05596900000000001 l-0.8884890000000002,-15.459595 l8.883789,-0.6161500000000002 zm-207.928894,18.820374 l0.3658750000000001,4.480957 l0.052185000000000016,0.05603000000000002 l0,0.05603000000000002 l0.8881840000000002,13.387085 l0,0.05603000000000002 l0,0.05596900000000001 l0.05239900000000003,1.06427 l-8.831421,0.504089 l-0.052185000000000016,-1.00824 l0,-0.05603000000000002 l-0.940613,-13.218994 l0,-0.05603000000000002 l-0.41803,-4.424988 l8.883606,-0.8961790000000004 zm209.339783,9.858215 l0.10449200000000003,3.024719 l0,0.05603000000000002 l0,0.05596900000000001 l0.3134770000000001,15.963623 l-8.883545,0.22406000000000006 l-0.3135380000000001,-15.851563 l0,-0.11206100000000004 l-0.10455300000000002,-2.9686890000000004 l8.883667,-0.3920900000000001 zm-207.510742,18.820313 l0.15664700000000006,2.912659 l0,0.05603000000000002 l0,0.05603000000000002 l0.365723,13.667114 l0,0.05603000000000002 l0,0.05603000000000002 l0,2.464539 l-8.883392,0.05596900000000001 l0,-2.408508 l0,-0.11200000000000003 l-0.3659060000000001,-13.387146 l0,-0.11200000000000003 l-0.15686000000000005,-2.800659 l8.883789,-0.504089 zm199.09729,9.914307 l8.88385,0.05596900000000001 l0,7.785767 l-0.05242900000000002,0.05603000000000002 l-0.10443100000000002,8.569946 l0,0.05603000000000002 l-0.052185000000000016,2.688599 l-8.88385,-0.2800290000000001 l0.05242900000000002,-2.632568 l0,-0.05603000000000002 l0.10449200000000003,-8.457947 l0,-0.05603000000000002 l0.05212400000000002,-7.729736 zm-10.346619,12.042725 c0.465027,49.439209 -3.2244260000000002,102.236755 -13.377686,159.244507 l-174.745911,-32.543457 c9.029938,-45.92395 12.551483,-86.84375 12.280243,-125.35675 l175.843353,-1.344299 zm-188.175934,6.833557 l0,1.8484500000000001 l0,0.05603000000000002 l0,0.05596900000000001 l-0.2613830000000001,14.003235 l0,0.05596900000000001 l-0.10434,3.248779 l-8.883789,-0.3920900000000001 l0.10470600000000004,-3.1367190000000003 l0,-0.05603000000000002 l0.2612,-13.835144 l0,-0.11200000000000003 l0,-1.6804200000000002 l8.883606,-0.05603000000000002 zm198.052338,9.522217 l8.883667,0.3920900000000001 l-0.20904500000000006,5.265198 l-0.365723,8.906067 l0,0.05596900000000001 l-0.261353,4.873169 l-8.883667,-0.560181 l0.261169,-4.817078 l0,-0.05603000000000002 l0.3659060000000001,-8.794006 l0,-0.05603000000000002 l0.20904500000000006,-5.209167 zm-207.71994,18.820313 l8.831512,0.504089 l-0.05236800000000002,1.45636 l0,0.05603000000000002 l-0.41803,7.225586 l0,0.056091000000000016 l-0.5747070000000002,7.225586 l0,0.05603000000000002 l-0.2614140000000001,3.1367190000000003 l-8.831299,-0.8962400000000003 l0.261169,-3.024658 l0,-0.05596900000000001 l0.522827,-7.113647 l0,-0.05603000000000002 l0.418091,-7.113586 l0,-0.056091000000000016 l0.104218,-1.400269 zm206.308929,9.578186 l8.883789,0.6721800000000002 l-0.261353,3.752808 l0,0.05603000000000002 l-0.6794430000000002,9.298157 l0,0.05596900000000001 l-0.522339,5.937378 l-8.831482,-0.8962400000000003 l0.4703980000000001,-5.881287 l0,-0.05603000000000002 l0.6792600000000002,-9.130066 l0,-0.05603000000000002 l0.261169,-3.752869 zm-208.50351,18.652283 l8.831299,1.008179 l-0.209076,2.07251 l0,0.05603000000000002 l0,0.05596900000000001 l-0.8360900000000002,7.393677 l0,0.05603000000000002 l-0.8882140000000002,7.505737 l-0.05233800000000003,0.05603000000000002 l-0.2613830000000001,1.9044189999999999 l-8.779175,-1.40033 l0.261475,-1.792419 l0,-0.05596900000000001 l0.940613,-7.393677 l0,-0.056091000000000016 l0.783936,-7.281616 l0,-0.11206100000000004 l0.20895400000000006,-2.016418 zm206.204254,9.690186 l8.883789,0.9522090000000002 l-0.3659060000000001,3.472839 l0,0.05603000000000002 l-0.992981,9.634155 l0,0.05603000000000002 l-0.6791990000000004,5.825378 l-8.779114,-1.176331 l0.6270750000000004,-5.769348 l0,-0.05596900000000001 l0.99292,-9.522156 l0,-0.05603000000000002 l0.3134160000000002,-3.416809 zm-209.705505,18.372253 l8.779083,1.512329 l-0.57486,3.920898 l0,0.05596900000000001 l-1.254211,7.673828 l0,0.05596900000000001 l-1.254181,7.169678 l-8.726715,-1.736389 l1.201813,-7.113647 l0,-0.05603000000000002 l1.25415,-7.561707 l0,-0.05603000000000002 l0.5749210000000002,-3.864868 zm206.622437,9.858215 l8.831421,1.2323 l-0.5227050000000002,4.425049 l-0.052185000000000016,0 l-1.3062740000000002,10.082275 l-0.627136,4.481018 l-8.779114,-1.456299 l0.627136,-4.369019 l0,-0.05603000000000002 l1.306335,-9.970276 l0,-0.05603000000000002 l0.5225219999999998,-4.312988 zm-211.377869,18.036133 l8.674744,1.960449 l-1.4109500000000001,7.057617 l0,0.05603000000000002 l-1.724396,8.009827 l0,0.05603000000000002 l-0.7839659999999998,3.528809 l-8.674591,-2.1845090000000003 l0.783752,-3.472839 l0.05230700000000002,-0.11200000000000003 l1.672241,-7.841736 l0,-0.05603000000000002 l1.4108580000000002,-7.001648 zm207.510864,10.082336 l8.779114,1.512329 l-0.992981,6.665527 l0,0.05603000000000002 l-1.67218,10.474365 l-0.052185000000000016,0.05603000000000002 l-0.261169,1.62439 l-8.726929,-1.6804200000000002 l0.261169,-1.6243290000000004 l0,-0.05603000000000002 l1.67218,-10.362366 l0,-0.05603000000000002 l0.992981,-6.609497 zm-213.520294,17.588013 l8.622467,2.352539 l-0.8361210000000002,3.472778 l0,0.05603000000000002 l-2.090271,8.233887 l0,0.05603000000000002 l-1.776947,6.665527 l-8.51767,-2.576599 l1.724548,-6.609497 l0,-0.05603000000000002 l2.037933,-8.121887 l0,-0.05596900000000001 l0.83606,-3.416809 zm208.973907,10.418396 l8.726929,1.8484500000000001 l-1.829102,10.306335 l0,0.05603000000000002 l-1.619812,8.345886 l-8.674561,-1.9044189999999999 l1.567688,-8.289917 l0,-0.05603000000000002 l1.8288570000000002,-10.306335 zm-5.225708,27.950378 l8.674805000000001,1.960449 l-0.8361210000000002,4.312988 l-2.351624,11.258606 l-0.6794430000000002,3.1367190000000003 l-8.622192,-2.128479 l0.6270140000000002,-3.080688 l0,-0.05603000000000002 l2.351501,-11.146545 l0,-0.05603000000000002 l0.83606,-4.200989 zm-5.852661,27.726379 l8.674744,2.24054 l-2.403992,10.530396 l0,0.05603000000000002 l-1.881226,7.9537960000000005 l-8.622253,-2.296509 l1.881226,-7.953857 l2.351501,-10.530396 z" stroke-miterlimit="4" stroke-width="141.732285" fill-rule="evenodd" fill="#000000"/>
   </g>
   <rect id="svg_38" transform="rotate(11.912400245666504 116.76412963867182,176.2689208984375) " height="171.04795837402344" width="14.224350929260254" y="90.74502444267273" x="109.6519947052002" stroke-linecap="null" stroke-linejoin="null" stroke-dasharray="null" stroke-width="5" stroke="#ffffff" fill="#ffffff"/>
   <polyline id="svg_39" points="36.729347229003906,303.7037799358368 36.729347229003906,303.7037799358368 " stroke-linecap="round" stroke-linejoin="null" stroke-dasharray="null" stroke-width="5" stroke="#ffffff" fill="none"/>
   <polyline id="svg_43" points="79.4793472290039,259.20374941825867 79.4793472290039,259.20374941825867 " stroke-linecap="round" stroke-linejoin="null" stroke-dasharray="null" stroke-width="5" stroke="#ffffff" fill="none"/>
   <polyline id="svg_44" points="99.9793472290039,259.9538104534149 99.9793472290039,259.9538104534149 " stroke-linecap="round" stroke-linejoin="null" stroke-dasharray="null" stroke-width="5" stroke="#ffffff" fill="none"/>
   <rect id="svg_45" transform="rotate(-2.2679800987243652 682.0751342773444,130.2999267578116) " height="171.04795837402344" width="21.008644104003906" y="44.77603030204773" x="671.5712070465088" stroke-linecap="null" stroke-linejoin="null" stroke-dasharray="null" stroke-width="5" stroke="#ffffff" fill="#ffffff"/>
   <rect id="svg_46" transform="rotate(-13.776700019836426 487.17413330078153,163.7009277343752) " height="173.4971466064453" width="21.008644104003906" y="76.95233035087585" x="476.67051124572754" stroke-linecap="null" stroke-linejoin="null" stroke-dasharray="null" stroke-width="5" stroke="#ffffff" fill="#ffffff"/>
   <rect id="svg_47" transform="rotate(-2.9984700679779053 301.04113769531335,190.63891601562523) " height="171.04795837402344" width="22.423830032348633" y="105.11501955986023" x="289.82895851135254" stroke-linecap="null" stroke-linejoin="null" stroke-dasharray="null" stroke-width="5" stroke="#ffffff" fill="#ffffff"/>
   <rect id="svg_48" transform="rotate(5.737170219421387 875.2221679687506,133.47192382812503) " height="171.04795837402344" width="24.655780792236328" y="47.94735598564148" x="862.8946933746338" stroke-linecap="null" stroke-linejoin="null" stroke-dasharray="null" stroke-width="5" stroke="#ffffff" fill="#ffffff"/>
   <rect id="svg_49" transform="rotate(13.528300285339355 1072.93505859375,177.17492675781259) " height="173.45159912109375" width="25.415081024169922" y="90.44915652275085" x="1060.2333164215088" stroke-linecap="null" stroke-linejoin="null" stroke-dasharray="null" stroke-width="5" stroke="#ffffff" fill="#ffffff"/>
  </g>
 </g>
</svg>